<svg width="40" height="40" viewBox="0 0 160 160" fill="none" xmlns="http://www.w3.org/2000/svg">
    <path d="M80 160C68.9333 160 58.5333 157.9 48.8 153.7C39.0667 149.5 30.6 143.8 23.4 136.6C16.2 129.4 10.5 120.933 6.3 111.2C2.1 101.467 0 91.0667 0 80C0 68.9333 2.1 58.5333 6.3 48.8C10.5 39.0667 16.2 30.6 23.4 23.4C30.6 16.2 39.0667 10.5 48.8 6.3C58.5333 2.1 68.9333 0 80 0C91.0667 0 101.467 2.1 111.2 6.3C120.933 10.5 129.4 16.2 136.6 23.4C143.8 30.6 149.5 39.0667 153.7 48.8C157.9 58.5333 160 68.9333 160 80V144C160 148.4 158.433 152.167 155.3 155.3C152.167 158.433 148.4 160 144 160H80ZM80 144C97.8667 144 113 137.8 125.4 125.4C137.8 113 144 97.8667 144 80C144 62.1333 137.8 47 125.4 34.6C113 22.2 97.8667 16 80 16C62.1333 16 47 22.2 34.6 34.6C22.2 47 16 62.1333 16 80C16 83.0667 16.2 86.0667 16.6 89C17 91.9333 17.6 94.8 18.4 97.6L42.8 73.2C44.2667 71.7333 46.0333 70.9667 48.1 70.9C50.1667 70.8333 52 71.4667 53.6 72.8L74.4 90.2L100.6 64H96C93.7333 64 91.8333 63.2333 90.3 61.7C88.7667 60.1667 88 58.2667 88 56C88 53.7333 88.7667 51.8333 90.3 50.3C91.8333 48.7667 93.7333 48 96 48H120C122.267 48 124.167 48.7667 125.7 50.3C127.233 51.8333 128 53.7333 128 56V80C128 82.2667 127.233 84.1667 125.7 85.7C124.167 87.2333 122.267 88 120 88C117.733 88 115.833 87.2333 114.3 85.7C112.767 84.1667 112 82.2667 112 80V75.4L80.4 106.8C78.9333 108.267 77.1667 109.067 75.1 109.2C73.0333 109.333 71.2 108.667 69.6 107.2L49 89.6L25.4 113.2C31 122.4 38.5667 129.833 48.1 135.5C57.6333 141.167 68.2667 144 80 144ZM140 148C142.267 148 144.167 147.233 145.7 145.7C147.233 144.167 148 142.267 148 140C148 137.733 147.233 135.833 145.7 134.3C144.167 132.767 142.267 132 140 132C137.733 132 135.833 132.767 134.3 134.3C132.767 135.833 132 137.733 132 140C132 142.267 132.767 144.167 134.3 145.7C135.833 147.233 137.733 148 140 148Z" fill="#42EEBA"/>
</svg>